<?xml version="1.0" standalone="no"?><!DOCTYPE svg PUBLIC "-//W3C//DTD SVG 1.1//EN" "http://www.w3.org/Graphics/SVG/1.1/DTD/svg11.dtd"><svg t="1697515816422" class="icon" viewBox="0 0 1024 1024" version="1.1" xmlns="http://www.w3.org/2000/svg" p-id="3031" xmlns:xlink="http://www.w3.org/1999/xlink" width="16" height="16"><path d="M585.142857 0a73.142857 73.142857 0 0 1 73.142857 73.142857v292.571429h292.571429a73.142857 73.142857 0 0 1 73.142857 73.142857v512a73.142857 73.142857 0 0 1-73.142857 73.142857H438.857143a73.142857 73.142857 0 0 1-73.142857-73.142857V658.285714H73.142857a73.142857 73.142857 0 0 1-73.142857-73.142857V73.142857a73.142857 73.142857 0 0 1 73.142857-73.142857h512z m365.714286 438.857143H658.285714v146.285714a73.142857 73.142857 0 0 1-73.142857 73.142857H438.857143v292.571429h512V438.857143zM585.142857 73.142857H73.142857v512h292.571429V438.857143a73.142857 73.142857 0 0 1 73.142857-73.142857h146.285714V73.142857z m0 365.714286H438.857143v146.285714h146.285714V438.857143z" p-id="3032"></path></svg>