<?xml version="1.0" standalone="no"?><!DOCTYPE svg PUBLIC "-//W3C//DTD SVG 1.1//EN" "http://www.w3.org/Graphics/SVG/1.1/DTD/svg11.dtd"><svg t="1697515500250" class="icon" viewBox="0 0 1024 1024" version="1.1" xmlns="http://www.w3.org/2000/svg" p-id="2826" xmlns:xlink="http://www.w3.org/1999/xlink" width="16" height="16"><path d="M777.489067 1010.346667H69.563733A35.4304 35.4304 0 0 1 34.133333 974.984533V267.0592c0-19.592533 15.837867-35.498667 35.4304-35.498667h216.610134a146.773333 146.773333 0 0 1-4.232534-35.362133 141.585067 141.585067 0 0 1 283.170134 0c0 11.946667-1.365333 23.825067-4.232534 35.4304h216.610134c19.524267 0 35.362133 15.837867 35.362133 35.362133v216.610134a146.773333 146.773333 0 0 1 35.4304-4.232534 141.585067 141.585067 0 0 1 0 283.170134 146.773333 146.773333 0 0 1-35.4304-4.232534v216.6784a35.362133 35.362133 0 0 1-35.362133 35.362134z m-672.5632-70.792534h637.1328v-240.0256a36.113067 36.113067 0 0 1 21.230933-32.5632 36.113067 36.113067 0 0 1 37.546667 6.417067 70.792533 70.792533 0 1 0 0-104.789333 34.679467 34.679467 0 0 1-37.546667 6.3488 36.113067 36.113067 0 0 1-21.162667-32.5632V302.421333H502.033067a36.113067 36.113067 0 0 1-32.5632-21.230933 34.679467 34.679467 0 0 1 6.3488-37.546667 70.792533 70.792533 0 1 0-104.789334 0 34.679467 34.679467 0 0 1 6.417067 37.546667 36.113067 36.113067 0 0 1-32.5632 21.162667H104.925867v637.201066z" p-id="2827"></path></svg>