<?xml version="1.0" standalone="no"?><!DOCTYPE svg PUBLIC "-//W3C//DTD SVG 1.1//EN" "http://www.w3.org/Graphics/SVG/1.1/DTD/svg11.dtd">
<svg t="1641817581518" class="icon" viewBox="0 0 1024 1024" version="1.1" xmlns="http://www.w3.org/2000/svg" p-id="3149" xmlns:xlink="http://www.w3.org/1999/xlink" width="200" height="200"><defs><style type="text/css"></style></defs><path d="M510.8 512m-228 0a228 228 0 1 0 456 0 228 228 0 1 0-456 0Z" p-id="3150"></path><path d="M142 142m-142 0a142 142 0 1 0 284 0 142 142 0 1 0-284 0Z" p-id="3151"></path><path d="M142 882m-142 0a142 142 0 1 0 284 0 142 142 0 1 0-284 0Z" p-id="3152"></path><path d="M882 142m-142 0a142 142 0 1 0 284 0 142 142 0 1 0-284 0Z" p-id="3153"></path><path d="M882 882m-142 0a142 142 0 1 0 284 0 142 142 0 1 0-284 0Z" p-id="3154"></path><path d="M205.639 263.51l56.568-56.569 131.732 131.733-56.568 56.568zM627.566 685.33l56.568-56.569 131.733 131.733-56.568 56.568zM262.33 817.054l-56.568-56.568 131.733-131.733 56.568 56.568zM684.043 395.234l-56.568-56.568 131.733-131.733 56.568 56.568z" p-id="3155"></path></svg>