<?xml version="1.0" standalone="no"?><!DOCTYPE svg PUBLIC "-//W3C//DTD SVG 1.1//EN" "http://www.w3.org/Graphics/SVG/1.1/DTD/svg11.dtd"><svg t="1660016672232" class="icon" viewBox="0 0 1024 1024" version="1.1" xmlns="http://www.w3.org/2000/svg" p-id="10247" xmlns:xlink="http://www.w3.org/1999/xlink" width="48" height="48"><defs><style type="text/css">@font-face { font-family: feedback-iconfont; src: url("//at.alicdn.com/t/font_1031158_u69w8yhxdu.woff2?t=1630033759944") format("woff2"), url("//at.alicdn.com/t/font_1031158_u69w8yhxdu.woff?t=1630033759944") format("woff"), url("//at.alicdn.com/t/font_1031158_u69w8yhxdu.ttf?t=1630033759944") format("truetype"); }
</style></defs><path d="M800 384H608v-160a96 96 0 0 0-96-96H224a96 96 0 0 0-96 96V800a96 96 0 0 0 96 96H800a96 96 0 0 0 96-96V480a96 96 0 0 0-96-96z" fill="#3F86FF" p-id="10248"></path><path d="M512 896H224V640a96 96 0 0 1 96-96h96a96 96 0 0 1 96 96z" fill="#FFFFFF" opacity=".75" p-id="10249"></path><path d="M736 640m-64 0a64 64 0 1 0 128 0 64 64 0 1 0-128 0Z" fill="#FFFFFF" opacity=".75" p-id="10250"></path><path d="M440 328h-48V280a24 24 0 0 0-48 0v48h-48a24 24 0 0 0 0 48h48v48a24 24 0 0 0 48 0v-48H440a24 24 0 0 0 0-48z" fill="#FFFFFF" p-id="10251"></path></svg>